<?xml version="1.0" encoding="utf-8"?>
<!-- Generator: Adobe Illustrator 19.2.1, SVG Export Plug-In . SVG Version: 6.00 Build 0)  -->
<svg version="1.1" id="Layer_1" xmlns="http://www.w3.org/2000/svg" xmlns:xlink="http://www.w3.org/1999/xlink" x="0px" y="0px"
	 width="33px" height="26px" viewBox="0 0 33 26" style="enable-background:new 0 0 33 26;" xml:space="preserve">
<style type="text/css">
	.st0{fill-rule:evenodd;clip-rule:evenodd;fill:#FFFFFF;}
</style>
<g>
	<path class="st0" d="M28.4,12.5l-11.9-8l-11.9,8v12c0,0.8,1,1.5,2.1,1.5h6.3v-9.6h7V26h6.3c1.2,0,2.1-0.7,2.1-1.5V12.5L28.4,12.5z
		 M7.7,1H6.8C6.3,1,5.9,1.3,5.9,1.8v4.5L1.1,9.7c-0.7,0.5-0.8,1.3-0.4,2c0.5,0.7,1.3,0.8,2,0.4l12.8-8.9c0.3-0.2,0.6-0.3,1-0.3
		c0.3,0,0.6,0.1,0.9,0.2l13,9c0.7,0.5,1.6,0.3,2-0.4c0.5-0.7,0.3-1.6-0.4-2l-13-9C18.2,0.2,17.3,0,16.4,0c-0.9,0-1.8,0.3-2.5,0.8
		L8.5,4.5V1.8C8.5,1.3,8.2,1,7.7,1L7.7,1z"/>
</g>
</svg>
