<?xml version="1.0" encoding="utf-8"?>
<!-- Generator: Adobe Illustrator 20.0.0, SVG Export Plug-In . SVG Version: 6.00 Build 0)  -->
<svg version="1.1" id="Layer_1" xmlns="http://www.w3.org/2000/svg" xmlns:xlink="http://www.w3.org/1999/xlink" x="0px" y="0px"
	 width="27px" height="18.7px" viewBox="0 0 27 18.7" style="enable-background:new 0 0 27 18.7;" xml:space="preserve">
<style type="text/css">
	.st0{fill-rule:evenodd;clip-rule:evenodd;fill:#FFFFFF;}
</style>
<g>
	<path class="st0" d="M2.5,0h21.9c1.1,0,2,0.8,2,1.9v0c0,1-0.9,1.9-2,1.9H2.5c-1.1,0-2-0.8-2-1.9v0C0.5,0.8,1.4,0,2.5,0L2.5,0z
		 M2.5,7.5h21.9c1.1,0,2,0.8,2,1.9v0c0,1-0.9,1.9-2,1.9H2.5c-1.1,0-2-0.8-2-1.9v0C0.5,8.3,1.4,7.5,2.5,7.5L2.5,7.5z M2.5,15h21.9
		c1.1,0,2,0.8,2,1.9v0c0,1-0.9,1.9-2,1.9H2.5c-1.1,0-2-0.8-2-1.9v0C0.5,15.8,1.4,15,2.5,15L2.5,15z"/>
</g>
</svg>
