<?xml version="1.0" encoding="utf-8"?>
<!-- Generator: Adobe Illustrator 20.0.0, SVG Export Plug-In . SVG Version: 6.00 Build 0)  -->
<svg version="1.1" id="Layer_1" xmlns="http://www.w3.org/2000/svg" xmlns:xlink="http://www.w3.org/1999/xlink" x="0px" y="0px"
	 width="36px" height="29px" viewBox="0 0 36 29" style="enable-background:new 0 0 36 29;" xml:space="preserve">
<style type="text/css">
	.st0{fill-rule:evenodd;clip-rule:evenodd;fill:#FFFFFF;}
</style>
<g>
	<path class="st0" d="M33.9,16.1c0.9,0,1.6-0.7,1.6-1.6c0-0.9-0.7-1.6-1.6-1.6H6l9.7-9.7c0.6-0.6,0.6-1.6,0-2.3
		c-0.6-0.6-1.6-0.6-2.3,0L1,13.3C0.3,14,0.3,15,1,15.6l12.5,12.5c0.6,0.6,1.6,0.6,2.3,0c0.6-0.6,0.6-1.6,0-2.3L6,16.1H33.9
		L33.9,16.1z"/>
</g>
</svg>
